<svg xmlns="http://www.w3.org/2000/svg" width="414.252" height="407.626" viewBox="0 0 414.252 407.626"><g transform="translate(85.126 -35.581)"><g transform="translate(-128 -11)"><rect width="29.896" height="12.633" transform="translate(62.74 304.512)" fill="none" stroke="#ebebeb" stroke-miterlimit="10" stroke-width="1"/><rect width="29.896" height="12.633" transform="translate(46.063 320.441)" fill="none" stroke="#ebebeb" stroke-miterlimit="10" stroke-width="1"/><rect width="29.896" height="12.633" transform="translate(46.063 47.081)" fill="none" stroke="#ebebeb" stroke-miterlimit="10" stroke-width="1"/><rect width="29.897" height="12.633" transform="translate(424.04 47.081)" fill="none" stroke="#ebebeb" stroke-miterlimit="10" stroke-width="1"/><rect width="29.896" height="12.633" transform="translate(407.363 63.011)" fill="none" stroke="#ebebeb" stroke-miterlimit="10" stroke-width="1"/><rect width="29.896" height="12.633" transform="translate(330.795 210.804)" fill="none" stroke="#ebebeb" stroke-miterlimit="10" stroke-width="1"/><rect width="29.896" height="12.633" transform="translate(314.118 226.734)" fill="none" stroke="#ebebeb" stroke-miterlimit="10" stroke-width="1"/><rect width="29.897" height="12.633" transform="translate(297.507 210.804)" fill="none" stroke="#ebebeb" stroke-miterlimit="10" stroke-width="1"/><rect width="29.897" height="12.633" transform="translate(424.04 320.441)" fill="none" stroke="#ebebeb" stroke-miterlimit="10" stroke-width="1"/><rect width="29.896" height="12.633" transform="translate(170.03 84.648)" fill="none" stroke="#ebebeb" stroke-miterlimit="10" stroke-width="1"/><path d="M423.225,180.971l5.887-9.49-2.906-1.8a2.656,2.656,0,0,1-1.233-2.5,15.216,15.216,0,0,0,.053-1.669,2.652,2.652,0,0,1,1.386-2.41l3.013-1.616-5.281-9.845-3.012,1.615a2.652,2.652,0,0,1-2.774-.178,15.793,15.793,0,0,0-1.42-.88,2.655,2.655,0,0,1-1.4-2.408l.108-3.418-11.163-.347-.1,3.43a2.656,2.656,0,0,1-1.557,2.31c-.247.117-.491.241-.734.371s-.481.265-.714.407a2.649,2.649,0,0,1-2.773.02l-2.928-1.813-5.887,9.49,2.912,1.807a2.657,2.657,0,0,1,1.23,2.5,15.629,15.629,0,0,0-.055,1.663,2.653,2.653,0,0,1-1.385,2.407l-3.014,1.616,5.28,9.846,3.014-1.616a2.652,2.652,0,0,1,2.771.177,15.322,15.322,0,0,0,1.416.875,2.655,2.655,0,0,1,1.4,2.407l-.106,3.426,11.163.347.106-3.427a2.652,2.652,0,0,1,1.553-2.3q.372-.176.74-.373c.242-.13.481-.265.714-.407a2.661,2.661,0,0,1,2.787-.019Zm-9.451-7.048a9.148,9.148,0,1,1,3.744-12.384A9.141,9.141,0,0,1,413.774,173.923Z" fill="#ebebeb"/><path d="M101.53,288.51l5.887-9.49-2.907-1.8a2.653,2.653,0,0,1-1.232-2.5,15.75,15.75,0,0,0,.053-1.67,2.653,2.653,0,0,1,1.385-2.409l3.013-1.616-5.28-9.845L99.436,260.8a2.653,2.653,0,0,1-2.774-.179,15.286,15.286,0,0,0-1.42-.879,2.657,2.657,0,0,1-1.4-2.409l.109-3.417-11.163-.347-.1,3.43a2.656,2.656,0,0,1-1.556,2.31q-.37.176-.735.37c-.242.13-.481.266-.714.407a2.649,2.649,0,0,1-2.773.021l-2.928-1.814-5.887,9.491L71,269.587a2.654,2.654,0,0,1,1.23,2.5,15.365,15.365,0,0,0-.054,1.663,2.653,2.653,0,0,1-1.386,2.407l-3.014,1.616,5.28,9.846L76.074,286a2.653,2.653,0,0,1,2.772.177,15.505,15.505,0,0,0,1.415.874,2.655,2.655,0,0,1,1.4,2.408l-.105,3.426,11.162.347.107-3.427a2.65,2.65,0,0,1,1.552-2.3c.248-.117.5-.242.74-.373s.481-.266.715-.407a2.659,2.659,0,0,1,2.787-.019Zm-9.452-7.048a9.149,9.149,0,1,1,3.745-12.384A9.142,9.142,0,0,1,92.078,281.462Z" fill="#ebebeb"/><path d="M215.868,106.738l-3.91-6.776-2.074,1.2a1.859,1.859,0,0,1-1.95-.066,10.924,10.924,0,0,0-1.013-.586,1.857,1.857,0,0,1-1.029-1.653v-2.4h-7.827v2.4a1.857,1.857,0,0,1-1.029,1.653,10.924,10.924,0,0,0-1.013.586,1.862,1.862,0,0,1-1.95.066L192,99.962l-3.91,6.776,2.083,1.2a1.862,1.862,0,0,1,.911,1.726q-.015.287-.015.576t.015.576a1.854,1.854,0,0,1-.9,1.718l-2.089,1.207,3.91,6.777,2.08-1.2a1.859,1.859,0,0,1,1.95.068,10.75,10.75,0,0,0,1.009.584,1.86,1.86,0,0,1,1.027,1.653v2.4h7.827v-2.4a1.86,1.86,0,0,1,1.027-1.653,10.609,10.609,0,0,0,1.008-.584,1.861,1.861,0,0,1,1.951-.068l2.08,1.2,3.91-6.777-2.08-1.2a1.858,1.858,0,0,1-.908-1.721c.01-.192.015-.385.015-.58s-.005-.385-.015-.576a1.864,1.864,0,0,1,.911-1.727Zm-7.48,3.5a6.41,6.41,0,1,1-6.406-6.412A6.4,6.4,0,0,1,208.388,110.24Z" fill="#ebebeb"/></g><g transform="translate(-128 -11)"><path d="M88.835,303.84c-13.068,12.794-15.262,32.587-12.508,49.924.072.394.68.286.68-.083,0-3.947-.119-7.858-.107-11.757.071-.179.131-.346.2-.525,3.411-2.48,6.546-5.282,8.49-9.121,2.182-4.293,3.04-9.134,4.71-13.617.155-.429-.3-.3-.6-.082-7.95,5.863-10.483,12.172-12.764,20.6a70.1,70.1,0,0,1,1.383-13.128c1.717-8,5.115-15.931,10.862-21.868C89.4,303.959,89.062,303.613,88.835,303.84Z" fill="#263238"/><path d="M91.291,305.331c2.249.076,3.658,3.67,5.41,4.718a1.685,1.685,0,0,0,2.481-.39c1.736-2.423-.646-5.413-2.886-7.085,1.6.659,2.931,1.816,4.658,2.144a1.623,1.623,0,0,0,2.1-1.259c.761-3.3-3.383-4.774-6.226-4.843,1.379-.958,5.329-3.563,3.23-4.844-2.127-1.286-6.762,2.439-8.274,3.666-2.223,1.8-4.873,4.5-4.973,7.317C86.683,308.048,89.561,306.022,91.291,305.331Z" fill="#ffc727"/><path d="M91.291,305.331c2.249.076,3.658,3.67,5.41,4.718a1.685,1.685,0,0,0,2.481-.39c1.736-2.423-.646-5.413-2.886-7.085,1.6.659,2.931,1.816,4.658,2.144a1.623,1.623,0,0,0,2.1-1.259c.761-3.3-3.383-4.774-6.226-4.843,1.379-.958,5.329-3.563,3.23-4.844-2.127-1.286-6.762,2.439-8.274,3.666-2.223,1.8-4.873,4.5-4.973,7.317C86.683,308.048,89.561,306.022,91.291,305.331Z" opacity="0.1"/><path d="M90.641,305.886c2.874-1.307,8.4.574,8.866-.514.952-2.215-3.461-3.734-5.843-4.028,2.194-.594,6.4-1.541,6.268-3.656-.158-2.584-6.447-.362-9.63,2.079-4.01,3.075-3.984,6.041-3.321,6.636C87.89,307.218,90.166,306.1,90.641,305.886Z" fill="#ffc727"/><path d="M59.073,302.573c13.546,12.288,16.491,31.984,14.4,49.413-.057.4-.668.312-.683-.058-.15-3.943-.179-7.856-.339-11.752-.079-.176-.145-.34-.223-.517-3.5-2.348-6.742-5.029-8.83-8.792-2.344-4.206-3.386-9.011-5.225-13.427-.171-.424.291-.315.6-.105,8.166,5.556,10.938,11.764,13.538,20.1a70.049,70.049,0,0,0-1.881-13.066c-2.02-7.93-5.717-15.724-11.686-21.439C58.518,302.714,58.838,302.355,59.073,302.573Z" fill="#263238"/><path d="M56.676,304.157c-2.244.161-3.516,3.806-5.227,4.92a1.685,1.685,0,0,1-2.494-.295c-1.827-2.356.44-5.434,2.614-7.19-1.576.719-2.859,1.927-4.572,2.32a1.625,1.625,0,0,1-2.15-1.178c-.886-3.273,3.2-4.9,6.037-5.077-1.413-.9-5.46-3.358-3.412-4.717,2.077-1.366,6.851,2.179,8.408,3.348,2.29,1.717,5.041,4.309,5.248,7.123C61.383,306.7,58.431,304.781,56.676,304.157Z" fill="#ffc727"/><path d="M56.676,304.157c-2.244.161-3.516,3.806-5.227,4.92a1.685,1.685,0,0,1-2.494-.295c-1.827-2.356.44-5.434,2.614-7.19-1.576.719-2.859,1.927-4.572,2.32a1.625,1.625,0,0,1-2.15-1.178c-.886-3.273,3.2-4.9,6.037-5.077-1.413-.9-5.46-3.358-3.412-4.717,2.077-1.366,6.851,2.179,8.408,3.348,2.29,1.717,5.041,4.309,5.248,7.123C61.383,306.7,58.431,304.781,56.676,304.157Z" opacity="0.1"/><path d="M57.347,304.686c-2.922-1.2-8.369.893-8.88-.176-1.035-2.177,3.317-3.862,5.686-4.247-2.215-.51-6.451-1.3-6.4-3.415.059-2.588,6.428-.607,9.7,1.711,4.124,2.92,4.211,5.886,3.571,6.505C60.146,305.913,57.829,304.884,57.347,304.686Z" fill="#ffc727"/><path d="M72.925,335.026a133.179,133.179,0,0,0,4.206,19.429.483.483,0,0,0,.946-.191c-.889-5.988-2.511-11.864-3.4-17.851a89.893,89.893,0,0,1-1.04-18.328c.57-10.089,3.31-20.821,9.893-28.715.145-.188-.162-.452-.311-.278-13.181,15.368-11.084,34.211-11.072,35.9-1.866-6.363-3.789-13.656-10.847-20.134-.305-.28-.542-.147-.491.328,1.262,11.8,4.543,17.962,11.384,24.271C72.387,331.327,72.628,333.188,72.925,335.026Z" fill="#263238"/><path d="M83.648,291.137c2.371-1.053,5.642,1.966,7.988,2.172a1.943,1.943,0,0,0,2.378-1.653c.581-3.389-3.395-5.291-6.561-5.9,1.994-.123,3.955.409,5.912-.119a1.875,1.875,0,0,0,1.549-2.366c-.874-3.811-5.913-3.25-8.9-1.891.948-1.688,3.735-6.379.913-6.652-2.854-.263-5.789,5.934-6.74,7.969-1.4,2.989-2.792,7.119-1.476,10.1C80.235,296.275,82.2,292.724,83.648,291.137Z" fill="#ffc727"/><path d="M83.648,291.137c2.371-1.053,5.642,1.966,7.988,2.172a1.943,1.943,0,0,0,2.378-1.653c.581-3.389-3.395-5.291-6.561-5.9,1.994-.123,3.955.409,5.912-.119a1.875,1.875,0,0,0,1.549-2.366c-.874-3.811-5.913-3.25-8.9-1.891.948-1.688,3.735-6.379.913-6.652-2.854-.263-5.789,5.934-6.74,7.969-1.4,2.989-2.792,7.119-1.476,10.1C80.235,296.275,82.2,292.724,83.648,291.137Z" opacity="0.1"/><path d="M83.252,292.04c2.325-2.8,9-3.631,8.941-5-.127-2.777-5.47-2.132-8.09-1.238,1.977-1.721,5.861-4.819,4.663-6.949-1.465-2.6-6.871,2.87-8.946,7.005-2.612,5.209-1.092,8.274-.105,8.557C81.069,294.807,82.869,292.5,83.252,292.04Z" fill="#ffc727"/><path d="M64.253,338.578,58.44,382.993H93.814c-.729-3.935-7.313-44.467-7.313-44.467Z" fill="#ffc727"/></g><g transform="translate(-128 -11)"><line x2="413.252" transform="translate(43.374 383.143)" fill="none" stroke="#263238" stroke-linecap="round" stroke-linejoin="round" stroke-width="1"/></g><path d="M157.573,227.672l-6.209-24.43-49.037,12.463-6.481-25.5,39.188-89.311,19.437-4.94,18.9,74.359,15.692-3.988L195.587,192,179.9,195.991l6.209,24.43Zm-33.6-44.806,24.251-6.163-8.021-31.563Z" transform="translate(-128 -11)" fill="#263238"/><path d="M298.021,146.118a65.553,65.553,0,0,1-3.679,22.355,55.493,55.493,0,0,1-10.121,17.663,45.818,45.818,0,0,1-15.178,11.591A43.924,43.924,0,0,1,250,201.867a44.5,44.5,0,0,1-19.134-4.14,45.493,45.493,0,0,1-15.271-11.591,54.106,54.106,0,0,1-10.028-17.663,71.432,71.432,0,0,1,0-44.709A54.086,54.086,0,0,1,215.594,106.1a46.614,46.614,0,0,1,15.271-11.684A43.71,43.71,0,0,1,250,90.185a43.141,43.141,0,0,1,19.044,4.232A46.965,46.965,0,0,1,284.221,106.1a55.471,55.471,0,0,1,10.121,17.663A65.547,65.547,0,0,1,298.021,146.118Zm-29.623,0q0-12.876-5.152-20.883t-13.247-8q-8.464,0-13.522,8t-5.06,20.883q0,12.881,5.06,20.791T250,174.82q8.1,0,13.247-7.911T268.4,146.118Z" transform="translate(-128 -11)" fill="#ffc727"/><path d="M350.843,222.964l4.031-24.882-49.945-8.091,4.207-25.972,71.508-66.325,19.8,3.207-12.27,75.735,15.983,2.59-4.237,26.153-15.983-2.589L379.9,227.672Zm-12.981-54.478,24.7,4,5.209-32.147Z" transform="translate(-128 -11)" fill="#263238"/><g transform="translate(-128 -11)"><rect width="35.512" height="2.909" transform="translate(235.089 313.845)" fill="#37474f"/><rect width="35.512" height="2.909" transform="translate(235.089 317.634)" fill="#37474f"/><rect width="35.512" height="2.909" transform="translate(235.089 321.424)" fill="#37474f"/><rect width="35.512" height="2.909" transform="translate(235.089 325.213)" fill="#37474f"/><rect width="35.512" height="2.909" transform="translate(235.089 329.002)" fill="#37474f"/><rect width="67.516" height="2.909" transform="translate(218.458 404.594)" fill="#37474f"/><rect width="67.516" height="2.909" transform="translate(218.458 408.383)" fill="#37474f"/><rect width="67.516" height="2.909" transform="translate(218.458 412.172)" fill="#37474f"/><rect width="67.516" height="2.909" transform="translate(218.458 415.961)" fill="#37474f"/><rect width="67.516" height="2.909" transform="translate(218.458 419.751)" fill="#37474f"/><path d="M188.834,289.8c.033-.393-14.778-5.354-14.778-5.354l.875-50.886,19.639-4.214Z" fill="#ffc727"/><path d="M188.834,289.8c.033-.393-14.778-5.354-14.778-5.354l.875-50.886,19.639-4.214Z" opacity="0.2"/><path d="M324.489,309.772c.1-.38,15.718.058,15.718.058l16.69-48.079-16.989-10.715Z" fill="#ffc727"/><path d="M324.489,309.772c.1-.38,15.718.058,15.718.058l16.69-48.079-16.989-10.715Z" opacity="0.2"/><path d="M185.983,308.536s5.491-82.3,10.307-109.372c0,0,99.416,7.519,153.086,28.033,0,0-27.67,96.127-29.1,100.9C320.275,328.1,250.267,314.3,185.983,308.536Z" fill="#ffc727"/><path d="M274.722,210.155q-2.424,14.863-4.945,29.711l-5.124,29.679-.277-.42,33.311,7.914,16.638,4.032,16.619,4.112-16.707-3.739-16.688-3.818-33.341-7.788-.337-.079.061-.341,5.3-29.647Q271.913,224.951,274.722,210.155Z" opacity="0.1"/><path d="M271.067,215.8a1.945,1.945,0,0,1-1.746,1.932,1.942,1.942,0,1,1,0-3.866A1.946,1.946,0,0,1,271.067,215.8Zm0,0a1.559,1.559,0,0,0-1.746-1.557,1.571,1.571,0,0,0,0,3.116,1.559,1.559,0,0,0,1.746-1.559Z" opacity="0.1"/><path d="M269.321,228.048a1.944,1.944,0,0,1-1.745,1.933,1.942,1.942,0,1,1,0-3.867A1.946,1.946,0,0,1,269.321,228.048Zm0,0a1.557,1.557,0,0,0-1.745-1.557,1.571,1.571,0,0,0,0,3.117,1.56,1.56,0,0,0,1.745-1.56Z" opacity="0.1"/><path d="M267.171,240.987a1.943,1.943,0,0,1-1.745,1.932,1.942,1.942,0,1,1,0-3.866A1.945,1.945,0,0,1,267.171,240.987Zm0,0a1.557,1.557,0,0,0-1.745-1.557,1.571,1.571,0,0,0,0,3.116,1.588,1.588,0,0,0,1.2-.361A1.608,1.608,0,0,0,267.171,240.987Z" opacity="0.1"/><path d="M265.021,253.926a1.944,1.944,0,0,1-1.745,1.932,1.942,1.942,0,1,1,0-3.866A1.944,1.944,0,0,1,265.021,253.926Zm0,0a1.557,1.557,0,0,0-1.745-1.557,1.571,1.571,0,0,0,0,3.116,1.56,1.56,0,0,0,1.745-1.559Z" opacity="0.1"/><path d="M272.347,274.561a1.945,1.945,0,0,1-1.746,1.932,1.942,1.942,0,1,1,0-3.866A1.946,1.946,0,0,1,272.347,274.561Zm0,0A1.559,1.559,0,0,0,270.6,273a1.571,1.571,0,0,0,0,3.116,1.561,1.561,0,0,0,1.746-1.559Z" opacity="0.1"/><path d="M284.56,277.54a1.943,1.943,0,0,1-1.746,1.932,1.942,1.942,0,1,1,0-3.866A1.945,1.945,0,0,1,284.56,277.54Zm0,0a1.558,1.558,0,0,0-1.746-1.557,1.571,1.571,0,0,0,0,3.116,1.589,1.589,0,0,0,1.2-.361A1.608,1.608,0,0,0,284.56,277.54Z" opacity="0.1"/><path d="M296.774,280.52a1.945,1.945,0,0,1-1.746,1.932,1.942,1.942,0,1,1,0-3.867A1.948,1.948,0,0,1,296.774,280.52Zm0,0a1.559,1.559,0,0,0-1.746-1.558,1.571,1.571,0,0,0,0,3.117,1.561,1.561,0,0,0,1.746-1.559Z" opacity="0.1"/><path d="M308.987,283.5a1.944,1.944,0,0,1-1.746,1.932,1.942,1.942,0,1,1,0-3.866A1.946,1.946,0,0,1,308.987,283.5Zm0,0a1.558,1.558,0,0,0-1.746-1.557,1.571,1.571,0,0,0,0,3.116,1.561,1.561,0,0,0,1.746-1.559Z" opacity="0.1"/><path d="M321.2,286.612a1.944,1.944,0,0,1-1.889,1.793,1.942,1.942,0,1,1,.3-3.855A1.945,1.945,0,0,1,321.2,286.612Zm0,0a1.558,1.558,0,0,0-1.62-1.687,1.571,1.571,0,0,0-.24,3.107,1.559,1.559,0,0,0,1.86-1.42Z" opacity="0.1"/><path d="M262.871,266.865a1.944,1.944,0,0,1-1.745,1.932,1.942,1.942,0,1,1,0-3.866A1.944,1.944,0,0,1,262.871,266.865Zm0,0a1.557,1.557,0,0,0-1.745-1.558,1.571,1.571,0,0,0,0,3.117,1.56,1.56,0,0,0,1.745-1.559Z" opacity="0.1"/><circle cx="28.231" cy="28.231" r="28.231" transform="translate(183.565 265.192) rotate(-41.961)" opacity="0.2"/><circle cx="22.641" cy="22.641" r="22.641" transform="translate(194.244 280.468) rotate(-69.267)" fill="#263238"/><rect width="5.362" height="5.362" transform="translate(216.771 258.143) rotate(9.202)" fill="#ffc727"/><rect width="5.362" height="5.362" transform="translate(212.335 251.992) rotate(9.202)" fill="#ffc727"/><rect width="5.362" height="5.362" transform="translate(233.507 255.422) rotate(9.202)" fill="#ffc727"/><rect width="5.362" height="5.362" transform="translate(208.925 273.045) rotate(9.202)" fill="#ffc727"/><rect width="5.362" height="5.362" transform="translate(230.097 276.475) rotate(9.202)" fill="#ffc727"/><rect width="5.362" height="5.362" transform="translate(215.075 268.609) rotate(9.202)" fill="#ffc727"/><rect width="5.362" height="5.362" transform="translate(221.216 264.234) rotate(9.202)" fill="#ffc727"/><rect width="5.362" height="5.362" transform="translate(227.357 259.858) rotate(9.202)" fill="#ffc727"/><rect width="5.362" height="5.362" transform="translate(225.661 270.324) rotate(9.203)" fill="#ffc727"/><circle cx="28.231" cy="28.231" r="28.231" transform="translate(259.462 283.083) rotate(-50.667)" fill="#ffc727"/><circle cx="28.231" cy="28.231" r="28.231" transform="translate(259.462 283.083) rotate(-50.667)" opacity="0.2"/><path d="M326.66,285.672c-.13.556-.278,1.093-.445,1.63l-55.028-11.737c.13-.982.306-1.964.538-2.955a28.233,28.233,0,1,1,54.935,13.062Z" opacity="0.2"/><circle cx="22.641" cy="22.641" r="22.641" transform="translate(269.572 266.977) rotate(-22.676)" fill="#263238"/><rect width="5.362" height="26.689" transform="translate(299.669 265.537) rotate(13.369)" fill="#ffc727"/><path d="M328.3,285.141,270.5,271.4a29.705,29.705,0,0,1,57.8,13.736Z" fill="#ffc727"/><path d="M328.3,285.141,270.5,271.4a29.705,29.705,0,0,1,57.8,13.736Z" opacity="0.2"/><path d="M250.071,295.922a10.455,10.455,0,0,1,2.612-6.356,7.65,7.65,0,0,1,3.069-2.065,8.631,8.631,0,0,1,3.7-.411,6.888,6.888,0,0,1,5.8,4.333,11.563,11.563,0,0,1,.589,6.848,18.118,18.118,0,0,0-1.99-6.137,5.876,5.876,0,0,0-4.614-3.06,7.008,7.008,0,0,0-5.484,1.6A14.818,14.818,0,0,0,250.071,295.922Z" opacity="0.1"/><path d="M193.716,238.34c.235-3.017.573-6.018.859-9.027.321-3,.651-6.007,1.017-9,.347-3,.738-6,1.121-8.99s.81-5.984,1.213-8.977l.107-.8.81.051q9.772.615,19.505,1.6,4.867.5,9.722,1.126c3.231.464,6.467.892,9.679,1.48L218.232,204.6l-19.5-1.262.917-.748c-.443,2.987-.854,5.978-1.324,8.961s-.916,5.969-1.415,8.948c-.479,2.982-.995,5.958-1.519,8.934C194.834,232.4,194.327,235.377,193.716,238.34Z" fill="#fff"/><path d="M198.411,261.156a24.66,24.66,0,0,1,4.517-10.09c.551-.756,1.178-1.456,1.782-2.176.652-.673,1.331-1.325,2-1.987.73-.594,1.468-1.183,2.218-1.754.8-.505,1.584-1.032,2.4-1.517.853-.41,1.7-.833,2.562-1.222l2.682-.928,2.776-.573c.932-.136,1.879-.165,2.814-.235a27.206,27.206,0,0,1,10.869,2.083,38.687,38.687,0,0,0-10.78-.715,25.352,25.352,0,0,0-10.073,3.126A29.4,29.4,0,0,0,204,251.917,33.3,33.3,0,0,0,198.411,261.156Z" fill="#fff"/><path d="M276.287,268.782a24.643,24.643,0,0,1,5.866-9.369c.65-.674,1.368-1.28,2.065-1.909.739-.577,1.5-1.129,2.258-1.692.8-.487,1.617-.969,2.439-1.431.86-.39,1.711-.8,2.581-1.172.9-.288,1.8-.59,2.706-.856l2.785-.549,2.829-.184c.941-.007,1.883.1,2.819.155a27.214,27.214,0,0,1,10.477,3.564,38.69,38.69,0,0,0-10.578-2.2,25.346,25.346,0,0,0-10.408,1.705,29.411,29.411,0,0,0-9.032,5.555A33.285,33.285,0,0,0,276.287,268.782Z" fill="#fff"/><path d="M189.141,359.252c-7.232,0-23.063-1.626-33.251-14.725-13.034-16.758-8.324-48.914-8.117-50.275l5.659.86c-.047.309-4.545,31.09,6.976,45.9,11.263,14.481,31.692,12.4,31.9,12.377l.645,5.687A35.788,35.788,0,0,1,189.141,359.252Z" fill="#ffc727"/><path d="M189.141,359.252c-7.232,0-23.063-1.626-33.251-14.725-13.034-16.758-8.324-48.914-8.117-50.275l5.659.86c-.047.309-4.545,31.09,6.976,45.9,11.263,14.481,31.692,12.4,31.9,12.377l.645,5.687A35.788,35.788,0,0,1,189.141,359.252Z" fill="#fff" opacity="0.4"/><path d="M155.1,299.005a19.73,19.73,0,0,1-3.159-.26c-9.546-1.546-13.772-7.258-15.637-11.778s-2.3-10.01-1.283-16.286l12.106,1.961c-.63,3.889-.447,7.315.515,9.648.686,1.664,2.018,3.661,6.261,4.349,1.938.314,4.032.148,6.227-3.162a22.869,22.869,0,0,0,3.067-8.231l12.106,1.961a35.441,35.441,0,0,1-4.952,13.048C166.557,295.972,161.222,299.005,155.1,299.005Z" fill="#ffc727"/><path d="M201.1,375.633c-.021-.261-10.256-1.9-10.256-1.9l-4.968-33.406,12.4-4.9Z" fill="#ffc727"/><path d="M201.1,375.633c-.021-.261-10.256-1.9-10.256-1.9l-4.968-33.406,12.4-4.9Z" opacity="0.2"/><path d="M302.3,375.7c.027-.261,10.3-1.669,10.3-1.669l5.7-33.288-12.286-5.169Z" fill="#ffc727"/><path d="M302.3,375.7c.027-.261,10.3-1.669,10.3-1.669l5.7-33.288-12.286-5.169Z" opacity="0.2"/><path d="M196.841,327.955s82.786-3.54,110.751,1.121c0,0-8.212,80.106-8.656,81.66,0,0-82.351-.222-95.224,0C203.712,410.736,196.735,357.469,196.841,327.955Z" fill="#ffc727"/><path d="M221.987,349.906s45.193-1.785,60.459.565c0,0-4.483,40.394-4.725,41.177,0,0-44.956-.112-51.984,0C225.737,391.648,222.649,364,221.987,349.906Z" opacity="0.2"/><path d="M228.164,391.631c-1.034,0-1.855.013-2.429.02,0,0-3.084-27.651-3.751-41.747,0,0,1.028-.04,2.823-.1Z" opacity="0.2"/><path d="M241.494,359.873a4.807,4.807,0,1,0,3.137,6.03A4.807,4.807,0,0,0,241.494,359.873Zm2.58,5.853a4.22,4.22,0,1,1-2.754-5.292A4.219,4.219,0,0,1,244.074,365.726Zm-2.58-5.853a4.807,4.807,0,1,0,3.137,6.03A4.807,4.807,0,0,0,241.494,359.873Zm2.58,5.853a4.22,4.22,0,1,1-2.754-5.292A4.219,4.219,0,0,1,244.074,365.726Zm-2.58-5.853a4.807,4.807,0,1,0,3.137,6.03A4.807,4.807,0,0,0,241.494,359.873Zm2.58,5.853a4.22,4.22,0,1,1-2.754-5.292A4.219,4.219,0,0,1,244.074,365.726ZM243.1,354.8A10.132,10.132,0,1,0,249.71,367.5,10.135,10.135,0,0,0,243.1,354.8Zm2.25,11.331a5.553,5.553,0,1,1-3.626-6.964A5.56,5.56,0,0,1,245.346,366.126Zm-.715-.223a4.805,4.805,0,1,0-6.025,3.14A4.807,4.807,0,0,0,244.631,365.9Zm-.557-.177a4.22,4.22,0,1,1-2.754-5.292A4.219,4.219,0,0,1,244.074,365.726Zm-2.58-5.853a4.807,4.807,0,1,0,3.137,6.03A4.807,4.807,0,0,0,241.494,359.873Zm2.58,5.853a4.22,4.22,0,1,1-2.754-5.292A4.219,4.219,0,0,1,244.074,365.726Zm-2.58-5.853a4.807,4.807,0,1,0,3.137,6.03A4.807,4.807,0,0,0,241.494,359.873Zm2.58,5.853a4.22,4.22,0,1,1-2.754-5.292A4.219,4.219,0,0,1,244.074,365.726Z" fill="#ffc727"/><path d="M238.988,374.305l-3.715-1.171-.623,2.695,3.3,1.041Z" fill="#ffc727"/><path d="M232.311,370.825l-1.8-3.455-2.346,1.465,1.6,3.073Z" fill="#ffc727"/><path d="M230.05,363.642l1.171-3.715-2.695-.623-1.041,3.3Z" fill="#ffc727"/><path d="M233.53,356.965l3.455-1.8-1.465-2.346-3.073,1.6Z" fill="#ffc727"/><path d="M240.712,354.7l3.715,1.171.623-2.695-3.3-1.041Z" fill="#ffc727"/><path d="M247.39,358.184l1.8,3.455,2.346-1.465-1.6-3.073Z" fill="#ffc727"/><path d="M249.651,365.367l-1.171,3.715,2.695.623,1.041-3.3Z" fill="#ffc727"/><path d="M246.171,372.044l-3.455,1.8,1.465,2.346,3.073-1.6Z" fill="#ffc727"/><path d="M257.835,374.012a3.236,3.236,0,1,0,.944,4.478A3.237,3.237,0,0,0,257.835,374.012Zm.615,4.262a2.841,2.841,0,1,1-.83-3.93A2.84,2.84,0,0,1,258.45,378.274Zm-.615-4.262a3.236,3.236,0,1,0,.944,4.478A3.237,3.237,0,0,0,257.835,374.012Zm.615,4.262a2.841,2.841,0,1,1-.83-3.93A2.84,2.84,0,0,1,258.45,378.274Zm-.615-4.262a3.236,3.236,0,1,0,.944,4.478A3.237,3.237,0,0,0,257.835,374.012Zm.615,4.262a2.841,2.841,0,1,1-.83-3.93A2.84,2.84,0,0,1,258.45,378.274Zm1.342-7.265a6.821,6.821,0,1,0,1.992,9.436A6.823,6.823,0,0,0,259.792,371.009Zm-.59,7.755a3.738,3.738,0,1,1-1.092-5.172A3.742,3.742,0,0,1,259.2,378.764Zm-.423-.274a3.235,3.235,0,1,0-4.475.947A3.237,3.237,0,0,0,258.779,378.49Zm-.329-.216a2.841,2.841,0,1,1-.83-3.93A2.84,2.84,0,0,1,258.45,378.274Zm-.615-4.262a3.236,3.236,0,1,0,.944,4.478A3.237,3.237,0,0,0,257.835,374.012Zm.615,4.262a2.841,2.841,0,1,1-.83-3.93A2.84,2.84,0,0,1,258.45,378.274Zm-.615-4.262a3.236,3.236,0,1,0,.944,4.478A3.237,3.237,0,0,0,257.835,374.012Zm.615,4.262a2.841,2.841,0,1,1-.83-3.93A2.84,2.84,0,0,1,258.45,378.274Z" fill="#dbdbdb"/><path d="M253.6,382.918l-2.2-1.431-.892,1.635,1.955,1.273Z" fill="#dbdbdb"/><path d="M249.9,379.454l-.542-2.566-1.786.526.482,2.282Z" fill="#dbdbdb"/><path d="M249.732,374.387l1.431-2.2-1.635-.891-1.273,1.955Z" fill="#dbdbdb"/><path d="M253.2,370.686l2.566-.542-.526-1.786-2.282.482Z" fill="#dbdbdb"/><path d="M258.263,370.519l2.2,1.431.892-1.635-1.955-1.273Z" fill="#dbdbdb"/><path d="M261.964,373.983l.542,2.566,1.786-.526-.482-2.282Z" fill="#dbdbdb"/><path d="M262.131,379.05l-1.431,2.2,1.635.891,1.273-1.955Z" fill="#dbdbdb"/><path d="M258.667,382.751l-2.566.542.526,1.786,2.282-.482Z" fill="#dbdbdb"/><path d="M305.594,401.414l3.181.592,9.1-61.627-3.625-.666Z" fill="#ffc727"/><path d="M277.721,391.648l4.725-41.177,31.8-10.758s-8.656,62.367-8.656,61.7Z" fill="#ffc727"/><path d="M277.721,391.648l4.725-41.177,31.8-10.758s-8.656,62.367-8.656,61.7Z" fill="#fff" opacity="0.4"/><path d="M200.64,352.139c-.518-3.411-.8-6.85-1.011-10.292-.1-1.721-.141-3.445-.18-5.17s-.064-3.449-.013-5.174l.014-.454.441-.023c6.318-.339,12.632-.755,18.953-1.031,6.32-.312,12.641-.6,18.965-.793-6.3.571-12.613,1.057-18.923,1.515-6.307.493-12.623.847-18.934,1.277l.455-.477-.026,5.15.06,5.152q.012,2.577.09,5.156Z" fill="#fff"/><path d="M286.882,351.075q2.957-1.4,6-2.609c2.019-.822,4.056-1.6,6.117-2.314s4.135-1.4,6.241-1.981a58.476,58.476,0,0,1,6.392-1.493l.533-.087-.1.509c-.5,2.666-1.022,5.328-1.639,7.975.231-2.708.557-5.4.906-8.091l.438.422c-2.1.5-4.185,1.086-6.263,1.7s-4.146,1.275-6.21,1.947Z" fill="#fff"/><path d="M214.4,328.122l.536,10.3.458,10.3.794,20.608.621,20.614.248,10.309.17,10.312-.537-10.3-.458-10.3-.793-20.608-.619-20.614-.249-10.309Z" opacity="0.1"/><path d="M211.453,334.33a1.945,1.945,0,0,1-1.329,2.24,1.942,1.942,0,1,1-.764-3.79A1.944,1.944,0,0,1,211.453,334.33Zm0,0a1.558,1.558,0,0,0-2.019-1.181,1.571,1.571,0,0,0,.616,3.055,1.561,1.561,0,0,0,1.4-1.874Z" opacity="0.1"/><path d="M212.162,346.679a1.945,1.945,0,0,1-1.329,2.24,1.942,1.942,0,1,1-.764-3.79A1.944,1.944,0,0,1,212.162,346.679Zm0,0a1.558,1.558,0,0,0-2.019-1.181,1.571,1.571,0,0,0,.616,3.055,1.559,1.559,0,0,0,1.4-1.874Z" opacity="0.1"/><path d="M212.612,359.788a1.943,1.943,0,0,1-1.329,2.239,1.942,1.942,0,1,1-.764-3.79A1.946,1.946,0,0,1,212.612,359.788Zm0,0a1.559,1.559,0,0,0-2.019-1.182,1.571,1.571,0,0,0,.616,3.055,1.559,1.559,0,0,0,1.4-1.873Z" opacity="0.1"/><path d="M213.062,372.9a1.945,1.945,0,0,1-1.329,2.24,1.942,1.942,0,1,1-.764-3.791A1.946,1.946,0,0,1,213.062,372.9Zm0,0a1.557,1.557,0,0,0-2.019-1.181,1.571,1.571,0,0,0,.616,3.055,1.561,1.561,0,0,0,1.4-1.874Z" opacity="0.1"/><path d="M213.512,386.005a1.944,1.944,0,0,1-1.329,2.239,1.942,1.942,0,1,1-.765-3.79A1.946,1.946,0,0,1,213.512,386.005Zm0,0a1.559,1.559,0,0,0-2.019-1.182,1.571,1.571,0,0,0,.616,3.055,1.56,1.56,0,0,0,1.4-1.873Z" opacity="0.1"/><path d="M213.962,399.113a1.943,1.943,0,0,1-1.329,2.239,1.942,1.942,0,1,1-.765-3.79A1.947,1.947,0,0,1,213.962,399.113Zm0,0a1.608,1.608,0,0,0-.774-1.065,1.591,1.591,0,0,0-1.245-.116,1.571,1.571,0,0,0,.616,3.055,1.561,1.561,0,0,0,1.4-1.874Z" opacity="0.1"/><rect width="48.981" height="5.723" transform="translate(171.154 433.361) rotate(-16.86)" fill="#ffc727"/><rect width="48.981" height="5.723" transform="translate(171.154 433.361) rotate(-16.86)" fill="#fff" opacity="0.4"/><rect width="5.723" height="8.501" transform="translate(190.118 425.813) rotate(-17.644)" fill="#ffc727"/><path d="M172.427,446.863l-12.1-52.379-36.51,8.656L141.8,454.187Z" fill="#ffc727"/><path d="M180.528,444.2l-8.1,2.663-12.1-52.379,11.652,2.774Z" fill="#ffc727"/><path d="M180.528,444.2l-8.1,2.663-12.1-52.379,11.652,2.774Z" opacity="0.2"/><circle cx="6.214" cy="6.214" r="6.214" transform="translate(212.645 415.68)" fill="#ffc727"/><rect width="5.723" height="48.981" transform="matrix(0.292, -0.956, 0.956, 0.292, 281.142, 424.487)" fill="#ffc727"/><rect width="5.723" height="48.981" transform="matrix(0.292, -0.956, 0.956, 0.292, 281.142, 424.487)" fill="#fff" opacity="0.4"/><rect width="8.501" height="5.723" transform="matrix(0.305, -0.952, 0.952, 0.305, 302.667, 432.079)" fill="#ffc727"/><path d="M328.357,446.818l12.207-52.353,36.491,8.733L358.97,454.207Z" fill="#ffc727"/><path d="M320.262,444.137l8.1,2.681,12.207-52.353-11.658,2.75Z" fill="#ffc727"/><path d="M320.262,444.137l8.1,2.681,12.207-52.353-11.658,2.75Z" opacity="0.2"/><path d="M275.764,421.737a6.215,6.215,0,1,0,6.228-6.2A6.215,6.215,0,0,0,275.764,421.737Z" fill="#ffc727"/><path d="M322.663,357.132c.146-.138,15.2-14.1,32.914-9.327,18.113,4.887,33.066,32.167,33.215,32.443l5.034-2.722c-.654-1.211-16.251-29.724-36.759-35.246-20.857-5.625-37.642,10.034-38.347,10.7Z" fill="#ffc727"/><path d="M322.663,357.132c.146-.138,15.2-14.1,32.914-9.327,18.113,4.887,33.066,32.167,33.215,32.443l5.034-2.722c-.654-1.211-16.251-29.724-36.759-35.246-20.857-5.625-37.642,10.034-38.347,10.7Z" fill="#fff" opacity="0.4"/><path d="M382.118,407.712l10.845-5.726a22.9,22.9,0,0,1-2.509-8.418c-.241-3.965,1.332-5.359,3.068-6.275,3.8-2.007,6.067-1.211,7.616-.3,2.173,1.283,4.383,3.908,6.222,7.392l10.846-5.726c-2.969-5.622-6.613-9.736-10.834-12.227s-11.025-4.5-19.577.015c-6.666,3.519-10.069,9.864-9.582,17.865A35.45,35.45,0,0,0,382.118,407.712Z" fill="#ffc727"/><path d="M324.949,338.022c2.351-1.624,4.758-3.154,7.172-4.67s4.859-2.983,7.308-4.441c2.461-1.437,4.923-2.872,7.425-4.241l3.754-2.049c1.27-.652,2.522-1.334,3.808-1.959-1.171.821-2.374,1.586-3.559,2.381l-3.613,2.29c-2.409,1.525-4.858,2.983-7.308,4.439-2.462,1.436-4.924,2.872-7.426,4.24S327.509,336.753,324.949,338.022Z" fill="#263238"/><path d="M318.72,361.423c3.367,1.919,6.558,4.083,9.7,6.308,3.13,2.25,6.216,4.561,9.124,7.122-3.367-1.917-6.558-4.081-9.7-6.308C324.716,366.293,321.63,363.982,318.72,361.423Z" fill="#263238"/><path d="M324.249,358.545c2.6.789,5.156,1.681,7.708,2.588s5.083,1.866,7.611,2.836c2.519.992,5.037,1.986,7.527,3.052l3.734,1.6c1.231.568,2.475,1.1,3.695,1.7-1.3-.385-2.582-.831-3.873-1.244l-3.835-1.343c-2.556-.9-5.084-1.866-7.61-2.837-2.519-.993-5.037-1.987-7.527-3.054S326.7,359.719,324.249,358.545Z" fill="#263238"/><path d="M331.63,340.217c2.49-.647,5-1.186,7.51-1.709s5.033-.99,7.556-1.446c2.528-.433,5.055-.864,7.6-1.219l3.813-.528c1.277-.141,2.548-.315,3.83-.425-1.243.334-2.5.6-3.746.907l-3.764.8c-2.509.533-5.032.99-7.556,1.445-2.527.431-5.055.863-7.6,1.217S334.191,339.977,331.63,340.217Z" fill="#263238"/></g><g transform="translate(-128 -11)"><path d="M271.622,355.787c1.39-6.144,6.7-16.295,14.642-15.018s8.527,12.684,4.443,12.329-4.346-23.322,9.565-26.989,22.314,10.279,22.314,10.279" fill="none" stroke="#263238" stroke-miterlimit="10" stroke-width="1"/><path d="M179.217,381.7c2.921-5.184,10.35-9.147,16.667-6.551,9.21,3.786,10.612,17.917,5.884,17.653-7.577-.425,2.036-20.5,16.829-18.862,13.323,1.472,15.478,16.95,15.478,16.95" fill="none" stroke="#263238" stroke-miterlimit="10" stroke-width="1"/><path d="M132.953,140.208c.116-6.3-2.616-17.424-10.635-18.079s-11.308,10.282-7.257,10.912,9.786-21.611-2.848-28.492-24.121,4.656-24.121,4.656" fill="none" stroke="#263238" stroke-miterlimit="10" stroke-width="1"/><path d="M353.77,192.371c-6.1-1.582-17.553-1.521-20.061,6.123s7.36,13.4,8.917,9.6-18.731-14.559-28.37-3.88-1.1,24.543-1.1,24.543" fill="none" stroke="#263238" stroke-miterlimit="10" stroke-width="1"/><path d="M291.86,127.671c-1.839-6.887,1.207-16.5,8.791-19.566,11.059-4.468,24.092,6.463,19.82,10.194-6.846,5.981-15.416-19.26-1.376-30.246,12.645-9.894,27.449,1.56,27.449,1.56" fill="none" stroke="#263238" stroke-miterlimit="10" stroke-width="1"/><path d="M175.874,381.922a4.252,4.252,0,1,0,2.775,5.333A4.252,4.252,0,0,0,175.874,381.922Zm2.282,5.177a3.733,3.733,0,1,1-2.436-4.682A3.732,3.732,0,0,1,178.156,387.1Zm-2.282-5.177a4.252,4.252,0,1,0,2.775,5.333A4.252,4.252,0,0,0,175.874,381.922Zm2.282,5.177a3.733,3.733,0,1,1-2.436-4.682A3.732,3.732,0,0,1,178.156,387.1Zm-2.282-5.177a4.252,4.252,0,1,0,2.775,5.333A4.252,4.252,0,0,0,175.874,381.922Zm2.282,5.177a3.733,3.733,0,1,1-2.436-4.682A3.732,3.732,0,0,1,178.156,387.1Zm-.865-9.67a8.963,8.963,0,1,0,5.851,11.241A8.967,8.967,0,0,0,177.291,377.429Zm1.99,10.024a4.912,4.912,0,1,1-3.207-6.161A4.918,4.918,0,0,1,179.281,387.453Zm-.632-.2a4.251,4.251,0,1,0-5.33,2.778A4.251,4.251,0,0,0,178.649,387.255Zm-.493-.156a3.733,3.733,0,1,1-2.436-4.682A3.732,3.732,0,0,1,178.156,387.1Zm-2.282-5.177a4.252,4.252,0,1,0,2.775,5.333A4.252,4.252,0,0,0,175.874,381.922Zm2.282,5.177a3.733,3.733,0,1,1-2.436-4.682A3.732,3.732,0,0,1,178.156,387.1Zm-2.282-5.177a4.252,4.252,0,1,0,2.775,5.333A4.252,4.252,0,0,0,175.874,381.922Zm2.282,5.177a3.733,3.733,0,1,1-2.436-4.682A3.732,3.732,0,0,1,178.156,387.1Z" fill="#455a64"/><path d="M173.657,394.688l-3.287-1.036-.551,2.384,2.923.921Z" fill="#455a64"/><path d="M167.75,391.61l-1.592-3.056-2.076,1.3,1.416,2.719Z" fill="#455a64"/><path d="M165.75,385.256l1.036-3.287-2.384-.551-.921,2.923Z" fill="#455a64"/><path d="M168.829,379.349l3.056-1.592-1.3-2.076-2.718,1.416Z" fill="#455a64"/><path d="M175.182,377.349l3.287,1.036.551-2.384-2.923-.921Z" fill="#455a64"/><path d="M181.089,380.427l1.592,3.057,2.076-1.3-1.416-2.718Z" fill="#455a64"/><path d="M183.09,386.781l-1.036,3.287,2.384.551.921-2.923Z" fill="#455a64"/><path d="M180.011,392.688l-3.057,1.592,1.3,2.076,2.719-1.416Z" fill="#455a64"/><path d="M341.674,353.349a13.7,13.7,0,1,0-19.164,2.839A13.7,13.7,0,0,0,341.674,353.349ZM335.811,349a6.4,6.4,0,1,1-1.325-8.947A6.4,6.4,0,0,1,335.811,349Z" fill="#263238"/><path d="M324.963,357.3l-4.23-3.139-1.988,3.168,3.762,2.792Z" fill="#263238"/><path d="M317.97,349.9l-.771-5.211-3.646.834.686,4.635Z" fill="#263238"/><path d="M318.257,339.721l3.139-4.23-3.168-1.988-2.792,3.762Z" fill="#263238"/><path d="M325.658,332.728l5.211-.771-.834-3.646L325.4,329Z" fill="#263238"/><path d="M335.836,333.015l4.23,3.139,1.988-3.168-3.762-2.792Z" fill="#263238"/><path d="M342.829,340.416l.771,5.211,3.646-.834-.686-4.635Z" fill="#263238"/><path d="M342.542,350.594l-3.139,4.23,3.168,1.988,2.792-3.762Z" fill="#263238"/><path d="M335.141,357.587l-5.211.771.834,3.646,4.635-.686Z" fill="#263238"/><path d="M325.767,345.843l2.909,3.67,4.634-.688,1.72-4.353-2.907-3.668-4.634.684Zm5.516-1.878a1.485,1.485,0,1,1-2.077.308A1.483,1.483,0,0,1,331.283,343.965Z" fill="#263238"/><path d="M351.943,86.6a3.721,3.721,0,1,0,2.429,4.667A3.72,3.72,0,0,0,351.943,86.6Zm2,4.53a3.266,3.266,0,1,1-2.132-4.1A3.266,3.266,0,0,1,353.94,91.131Zm-2-4.53a3.721,3.721,0,1,0,2.429,4.667A3.72,3.72,0,0,0,351.943,86.6Zm2,4.53a3.266,3.266,0,1,1-2.132-4.1A3.266,3.266,0,0,1,353.94,91.131Zm-2-4.53a3.721,3.721,0,1,0,2.429,4.667A3.72,3.72,0,0,0,351.943,86.6Zm2,4.53a3.266,3.266,0,1,1-2.132-4.1A3.266,3.266,0,0,1,353.94,91.131Zm-.757-8.462a7.843,7.843,0,1,0,5.12,9.837A7.847,7.847,0,0,0,353.183,82.669Zm1.742,8.772a4.3,4.3,0,1,1-2.807-5.391A4.3,4.3,0,0,1,354.925,91.441Zm-.553-.173a3.72,3.72,0,1,0-4.664,2.431A3.721,3.721,0,0,0,354.372,91.268Zm-.432-.137a3.266,3.266,0,1,1-2.132-4.1A3.266,3.266,0,0,1,353.94,91.131Zm-2-4.53a3.721,3.721,0,1,0,2.429,4.667A3.72,3.72,0,0,0,351.943,86.6Zm2,4.53a3.266,3.266,0,1,1-2.132-4.1A3.266,3.266,0,0,1,353.94,91.131Zm-2-4.53a3.721,3.721,0,1,0,2.429,4.667A3.72,3.72,0,0,0,351.943,86.6Zm2,4.53a3.266,3.266,0,1,1-2.132-4.1A3.266,3.266,0,0,1,353.94,91.131Z" fill="#263238"/><path d="M350,97.772l-2.876-.906-.483,2.086,2.558.806Z" fill="#263238"/><path d="M344.834,95.078,343.441,92.4l-1.816,1.134,1.239,2.379Z" fill="#263238"/><path d="M343.084,89.518l.906-2.876L341.9,86.16l-.806,2.558Z" fill="#263238"/><path d="M345.778,84.349l2.674-1.393-1.134-1.816-2.379,1.239Z" fill="#263238"/><path d="M351.338,82.6l2.876.906.482-2.086-2.558-.806Z" fill="#263238"/><path d="M356.507,85.293l1.393,2.674,1.816-1.134-1.239-2.379Z" fill="#263238"/><path d="M358.257,90.853l-.906,2.876,2.086.482.806-2.558Z" fill="#263238"/><path d="M355.563,96.022l-2.675,1.393,1.134,1.816,2.379-1.239Z" fill="#263238"/><path d="M313.728,229.466a3.721,3.721,0,1,0,2.428,4.667A3.722,3.722,0,0,0,313.728,229.466Zm2,4.53a3.266,3.266,0,1,1-2.132-4.1A3.266,3.266,0,0,1,315.724,234Zm-2-4.53a3.721,3.721,0,1,0,2.428,4.667A3.722,3.722,0,0,0,313.728,229.466Zm2,4.53a3.266,3.266,0,1,1-2.132-4.1A3.266,3.266,0,0,1,315.724,234Zm-2-4.53a3.721,3.721,0,1,0,2.428,4.667A3.722,3.722,0,0,0,313.728,229.466Zm2,4.53a3.266,3.266,0,1,1-2.132-4.1A3.266,3.266,0,0,1,315.724,234Zm-.756-8.461a7.843,7.843,0,1,0,5.119,9.836A7.846,7.846,0,0,0,314.968,225.535Zm1.741,8.771a4.3,4.3,0,1,1-2.807-5.391A4.3,4.3,0,0,1,316.709,234.306Zm-.553-.173a3.72,3.72,0,1,0-4.664,2.431A3.721,3.721,0,0,0,316.156,234.133Zm-.432-.137a3.266,3.266,0,1,1-2.132-4.1A3.266,3.266,0,0,1,315.724,234Zm-2-4.53a3.721,3.721,0,1,0,2.428,4.667A3.722,3.722,0,0,0,313.728,229.466Zm2,4.53a3.266,3.266,0,1,1-2.132-4.1A3.266,3.266,0,0,1,315.724,234Zm-2-4.53a3.721,3.721,0,1,0,2.428,4.667A3.722,3.722,0,0,0,313.728,229.466Zm2,4.53a3.266,3.266,0,1,1-2.132-4.1A3.266,3.266,0,0,1,315.724,234Z" fill="#263238"/><path d="M311.787,240.637l-2.876-.906-.482,2.086,2.558.806Z" fill="#263238"/><path d="M306.618,237.943l-1.393-2.675-1.816,1.134,1.239,2.379Z" fill="#263238"/><path d="M304.868,232.383l.906-2.876-2.086-.482-.806,2.558Z" fill="#263238"/><path d="M307.562,227.214l2.674-1.393-1.134-1.816-2.379,1.239Z" fill="#263238"/><path d="M313.122,225.464l2.876.906.482-2.086-2.558-.806Z" fill="#263238"/><path d="M318.291,228.158l1.393,2.674L321.5,229.7l-1.239-2.379Z" fill="#263238"/><path d="M320.041,233.718l-.906,2.876,2.086.483.806-2.558Z" fill="#263238"/><path d="M317.347,238.887l-2.674,1.393,1.134,1.816,2.379-1.239Z" fill="#263238"/><path d="M95.021,116.993a11.8,11.8,0,1,0-14.251,8.67A11.8,11.8,0,0,0,95.021,116.993ZM88.913,115.5a5.509,5.509,0,1,1-4.047-6.654A5.507,5.507,0,0,1,88.913,115.5Z" fill="#263238"/><path d="M83.088,125.723l-4.407-1.074-.516,3.179,3.92.955Z" fill="#263238"/><path d="M75.062,122.195l-2.357-3.875L70.092,120.2l2.1,3.447Z" fill="#263238"/><path d="M71.881,114.024l1.074-4.407-3.179-.516-.955,3.92Z" fill="#263238"/><path d="M75.41,106l3.875-2.357L77.4,101.028l-3.447,2.1Z" fill="#263238"/><path d="M83.58,102.818l4.407,1.074.516-3.179-3.92-.955Z" fill="#263238"/><path d="M91.606,106.346l2.357,3.875,2.613-1.883-2.1-3.447Z" fill="#263238"/><path d="M94.787,114.517l-1.074,4.407,3.179.516.955-3.92Z" fill="#263238"/><path d="M91.258,122.543,87.383,124.9l1.883,2.613,3.447-2.1Z" fill="#263238"/><path d="M79.889,116.366l3.537,1.937,3.445-2.1-.093-4.029-3.535-1.936L79.8,112.334Zm3.747-3.337a1.278,1.278,0,1,1-1.545.939A1.275,1.275,0,0,1,83.636,113.029Z" fill="#263238"/></g><g transform="translate(-46.036 -45.111)"><path d="M86.716,120.646q-1.5-6.6,1.341-11.123t9.414-6.009q6.733-1.532,11.2,1.256t5.947,9.3a17.044,17.044,0,0,1,.171,8.118,11.634,11.634,0,0,1-3.529,5.757,15.577,15.577,0,0,1-7.116,3.388,17.689,17.689,0,0,1-7.884.264,11.646,11.646,0,0,1-5.9-3.5A15.654,15.654,0,0,1,86.716,120.646Zm8.344-1.857q.929,4.086,2.852,5.524a5.895,5.895,0,0,0,8.3-1.847q1.074-2.083.046-6.61-.867-3.809-2.8-5.217a5.388,5.388,0,0,0-4.567-.809,5.2,5.2,0,0,0-3.643,2.705Q94.122,114.668,95.06,118.789Z" fill="#ffc727"/><path d="M118.593,117.347a10.023,10.023,0,0,1,1.343-8.055,11.555,11.555,0,0,1,7.492-4.751q5.871-1.335,9.644,1.387a10.917,10.917,0,0,1,2.635,14.274q-2.336,3.559-7.617,4.76a11.891,11.891,0,0,1-8.162-.661A9.844,9.844,0,0,1,118.593,117.347Zm7.5-1.724a6.049,6.049,0,0,0,1.936,3.624,3.556,3.556,0,0,0,5.322-1.191,6.253,6.253,0,0,0,.141-4.192,5.913,5.913,0,0,0-1.909-3.544,3.348,3.348,0,0,0-2.877-.652,3.476,3.476,0,0,0-2.418,1.876A5.974,5.974,0,0,0,126.1,115.623Z" fill="#ffc727"/><path d="M148.585,128.566l-6.133-26.976L149.463,100l.656,2.889a9.583,9.583,0,0,1,2.108-3.072,7.846,7.846,0,0,1,3.428-1.688,7.191,7.191,0,0,1,6.745,1.62,12.739,12.739,0,0,1,3.83,6.929q1.11,4.877-.645,7.974a7.837,7.837,0,0,1-5.323,3.91,8.4,8.4,0,0,1-3.29.128,7.684,7.684,0,0,1-2.945-1.168l2.121,9.329Zm3.609-18.857a5.271,5.271,0,0,0,1.757,3.219,3.2,3.2,0,0,0,2.721.562,2.8,2.8,0,0,0,1.945-1.574,5.987,5.987,0,0,0,.053-3.854,5.563,5.563,0,0,0-1.713-3.277,2.883,2.883,0,0,0-2.5-.6,3.1,3.1,0,0,0-2.137,1.666A5.727,5.727,0,0,0,152.194,109.709Z" fill="#ffc727"/><path d="M169.435,110.3l7.275-2.39a3.77,3.77,0,0,0,1.719,1.6,3.941,3.941,0,0,0,2.338.068,3.832,3.832,0,0,0,2.19-1.175,1.472,1.472,0,0,0,.372-1.341,1.4,1.4,0,0,0-1.13-1.056,15.847,15.847,0,0,0-3.4-.041,34.486,34.486,0,0,1-5.706-.026,5.862,5.862,0,0,1-3-1.377,5.214,5.214,0,0,1-1.755-2.907,5.285,5.285,0,0,1,.366-3.582,6.855,6.855,0,0,1,2.617-2.79,16.849,16.849,0,0,1,5.125-1.89,18.738,18.738,0,0,1,5.283-.639,6.9,6.9,0,0,1,3.154,1.024,8.879,8.879,0,0,1,2.54,2.616l-6.944,2.315a2.48,2.48,0,0,0-1.233-1.171,3.844,3.844,0,0,0-2.269-.105,3.112,3.112,0,0,0-1.747.87,1.379,1.379,0,0,0-.331,1.226,1.193,1.193,0,0,0,.983.916,12.152,12.152,0,0,0,3.352-.066,22.464,22.464,0,0,1,5.824-.086,6.279,6.279,0,0,1,3.277,1.516A5.421,5.421,0,0,1,190,104.663a6.2,6.2,0,0,1-.273,3.522,7.1,7.1,0,0,1-2.642,3.279,15.913,15.913,0,0,1-5.774,2.308q-5.355,1.218-7.974.206A7.038,7.038,0,0,1,169.435,110.3Z" fill="#ffc727"/><path d="M193.849,85.566l8.208-.046.036,6.3-1.514,12.671-5.076.028-1.619-12.653Zm.4,20.888,7.661-.043.038,6.774-7.661.043Z" fill="#ffc727"/></g></g></svg>